<svg version="1.1" id="Layer_1" xmlns="http://www.w3.org/2000/svg" xmlns:xlink="http://www.w3.org/1999/xlink" x="0px" y="0px"
	 width="100%" viewBox="0 0 166 222" enable-background="new 0 0 166 222" xml:space="preserve">
<path fill="#FCFDFE" opacity="1.000000" stroke="none" 
	d="
M1.000000,88.000000 
	C1.000000,58.666672 1.000000,29.833347 1.000000,1.000015 
	C56.333313,1.000010 111.666626,1.000010 166.999954,1.000005 
	C166.999969,74.999962 166.999969,148.999924 166.999985,222.999908 
	C111.666718,222.999939 56.333435,222.999939 1.000076,222.999969 
	C1.000000,178.166672 1.000000,133.333328 1.000000,88.000000 
M72.216217,99.282104 
	C61.582405,85.091095 50.948589,70.900078 40.288979,56.674633 
	C11.088559,82.645729 6.658855,150.291428 24.521065,180.977646 
	C25.454384,179.975815 26.404379,179.079971 27.212360,178.070450 
	C42.389027,159.108078 57.566887,140.146622 72.705109,121.153572 
	C81.076836,110.650063 81.044243,110.624084 72.216217,99.282104 
M121.535553,151.960739 
	C129.306900,161.645462 137.078247,171.330170 144.984283,181.182739 
	C163.011383,150.230484 158.560593,82.558472 129.082870,57.020149 
	C115.628349,74.961617 102.188683,92.883293 88.702354,110.867172 
	C99.698677,124.639778 110.387177,138.026840 121.535553,151.960739 
M80.320328,33.618217 
	C66.813919,36.590580 54.884491,42.533195 44.466351,52.056095 
	C58.033661,70.122528 71.254822,87.728020 84.843636,105.823097 
	C98.455246,87.677147 111.589249,70.167908 124.972252,52.326717 
	C115.790894,43.923477 105.458702,38.154175 93.788651,34.951103 
	C89.730072,33.837151 85.362099,33.850437 80.320328,33.618217 
M81.934952,179.500000 
	C81.934952,159.951447 81.934952,140.402908 81.934952,120.650169 
	C81.151878,120.947220 80.765045,120.970329 80.602448,121.173187 
	C63.544418,142.453949 46.467010,163.719635 29.573978,185.130768 
	C28.775179,186.143219 28.976770,188.903732 29.803179,190.090851 
	C37.751553,201.508484 48.582272,209.345657 61.605118,213.920593 
	C67.908676,216.135056 74.573914,217.319977 81.934906,219.189316 
	C81.934906,205.375092 81.934906,192.937546 81.934952,179.500000 
M101.506371,216.072037 
	C118.456650,211.400391 132.165451,202.249298 141.934448,187.183136 
	C124.053253,164.849365 106.366570,142.758545 88.217499,120.090218 
	C88.217499,153.369568 88.217499,185.600616 88.217499,218.660049 
	C92.682274,217.802185 96.693069,217.031555 101.506371,216.072037 
M34.865967,53.374332 
	C37.905586,50.639709 40.945206,47.905087 44.241112,44.939884 
	C37.726067,39.154087 33.775673,31.581375 25.407806,30.773365 
	C21.901781,30.434818 17.590652,31.993603 14.639641,34.089470 
	C11.443046,36.359749 11.300499,40.925274 13.326586,44.163910 
	C17.321335,50.549389 22.016541,56.496662 26.651228,62.943981 
	C29.654011,59.419682 32.011814,56.652378 34.865967,53.374332 
M152.517471,31.784620 
	C143.154434,27.302206 135.637054,33.139935 126.551888,44.770050 
	C132.017746,50.682812 137.446869,56.555828 143.101532,62.672829 
	C147.181305,57.176716 151.390656,51.855255 155.205139,46.264385 
	C158.682098,41.168205 157.841232,36.539371 152.517471,31.784620 
M91.454620,27.960543 
	C92.595284,27.306105 94.597008,26.794764 94.733505,25.973448 
	C95.484016,21.457319 96.435677,16.811020 96.063904,12.313077 
	C95.591072,6.592422 90.190331,2.813770 84.403511,3.046452 
	C78.500618,3.283801 73.410690,7.330402 73.235947,13.037160 
	C73.083618,18.011379 74.198311,23.024397 74.723770,27.755611 
	C80.828049,27.755611 85.721565,27.755611 91.454620,27.960543 
M150.167511,184.869812 
	C147.116043,189.589981 144.064560,194.310150 140.432236,199.928787 
	C143.551468,202.782608 146.886871,205.749207 150.125961,208.817490 
	C155.032516,213.465317 160.303802,215.011917 163.422531,212.608887 
	C166.615829,210.148376 166.654099,203.931870 163.012039,198.364777 
	C159.831467,193.503036 156.190765,188.938904 152.646942,184.325027 
	C152.378860,183.975983 151.260254,184.280197 150.167511,184.869812 
M16.603872,211.261780 
	C20.803873,207.300262 25.003874,203.338745 29.072334,199.501297 
	C25.248007,193.837753 21.757090,188.667969 17.786390,182.787659 
	C13.429083,189.147705 8.938672,195.090698 5.166847,201.459274 
	C3.211335,204.761093 2.691597,209.032257 5.880745,212.139542 
	C9.130583,215.305954 12.686825,213.380630 16.603872,211.261780 
z"/>
<path fill="#567AC5" opacity="1.000000" stroke="none" 
	d="
M72.435127,99.566116 
	C81.044243,110.624084 81.076836,110.650063 72.705109,121.153572 
	C57.566887,140.146622 42.389027,159.108078 27.212360,178.070450 
	C26.404379,179.079971 25.454384,179.975815 24.521065,180.977646 
	C6.658855,150.291428 11.088559,82.645729 40.288979,56.674633 
	C50.948589,70.900078 61.582405,85.091095 72.435127,99.566116 
z"/>
<path fill="#567AC5" opacity="1.000000" stroke="none" 
	d="
M121.305611,151.687317 
	C110.387177,138.026840 99.698677,124.639778 88.702354,110.867172 
	C102.188683,92.883293 115.628349,74.961617 129.082870,57.020149 
	C158.560593,82.558472 163.011383,150.230484 144.984283,181.182739 
	C137.078247,171.330170 129.306900,161.645462 121.305611,151.687317 
z"/>
<path fill="#567AC5" opacity="1.000000" stroke="none" 
	d="
M80.727882,33.483559 
	C85.362099,33.850437 89.730072,33.837151 93.788651,34.951103 
	C105.458702,38.154175 115.790894,43.923477 124.972252,52.326717 
	C111.589249,70.167908 98.455246,87.677147 84.843636,105.823097 
	C71.254822,87.728020 58.033661,70.122528 44.466351,52.056095 
	C54.884491,42.533195 66.813919,36.590580 80.727882,33.483559 
z"/>
<path fill="#577AC5" opacity="1.000000" stroke="none" 
	d="
M81.934929,180.000000 
	C81.934906,192.937546 81.934906,205.375092 81.934906,219.189316 
	C74.573914,217.319977 67.908676,216.135056 61.605118,213.920593 
	C48.582272,209.345657 37.751553,201.508484 29.803179,190.090851 
	C28.976770,188.903732 28.775179,186.143219 29.573978,185.130768 
	C46.467010,163.719635 63.544418,142.453949 80.602448,121.173187 
	C80.765045,120.970329 81.151878,120.947220 81.934952,120.650169 
	C81.934952,140.402908 81.934952,159.951447 81.934929,180.000000 
z"/>
<path fill="#567AC5" opacity="1.000000" stroke="none" 
	d="
M101.105118,216.166473 
	C96.693069,217.031555 92.682274,217.802185 88.217499,218.660049 
	C88.217499,185.600616 88.217499,153.369568 88.217499,120.090218 
	C106.366570,142.758545 124.053253,164.849365 141.934448,187.183136 
	C132.165451,202.249298 118.456650,211.400391 101.105118,216.166473 
z"/>
<path fill="#597CC6" opacity="1.000000" stroke="none" 
	d="
M34.617790,53.629704 
	C32.011814,56.652378 29.654011,59.419682 26.651228,62.943981 
	C22.016541,56.496662 17.321335,50.549389 13.326586,44.163910 
	C11.300499,40.925274 11.443046,36.359749 14.639641,34.089470 
	C17.590652,31.993603 21.901781,30.434818 25.407806,30.773365 
	C33.775673,31.581375 37.726067,39.154087 44.241112,44.939884 
	C40.945206,47.905087 37.905586,50.639709 34.617790,53.629704 
z"/>
<path fill="#587BC6" opacity="1.000000" stroke="none" 
	d="
M152.861282,31.965710 
	C157.841232,36.539371 158.682098,41.168205 155.205139,46.264385 
	C151.390656,51.855255 147.181305,57.176716 143.101532,62.672829 
	C137.446869,56.555828 132.017746,50.682812 126.551888,44.770050 
	C135.637054,33.139935 143.154434,27.302206 152.861282,31.965710 
z"/>
<path fill="#587BC6" opacity="1.000000" stroke="none" 
	d="
M91.034851,27.858078 
	C85.721565,27.755611 80.828049,27.755611 74.723770,27.755611 
	C74.198311,23.024397 73.083618,18.011379 73.235947,13.037160 
	C73.410690,7.330402 78.500618,3.283801 84.403511,3.046452 
	C90.190331,2.813770 95.591072,6.592422 96.063904,12.313077 
	C96.435677,16.811020 95.484016,21.457319 94.733505,25.973448 
	C94.597008,26.794764 92.595284,27.306105 91.034851,27.858078 
z"/>
<path fill="#597CC6" opacity="1.000000" stroke="none" 
	d="
M150.352264,184.575287 
	C151.260254,184.280197 152.378860,183.975983 152.646942,184.325027 
	C156.190765,188.938904 159.831467,193.503036 163.012039,198.364777 
	C166.654099,203.931870 166.615829,210.148376 163.422531,212.608887 
	C160.303802,215.011917 155.032516,213.465317 150.125961,208.817490 
	C146.886871,205.749207 143.551468,202.782608 140.432236,199.928787 
	C144.064560,194.310150 147.116043,189.589981 150.352264,184.575287 
z"/>
<path fill="#587BC6" opacity="1.000000" stroke="none" 
	d="
M16.306576,211.479279 
	C12.686825,213.380630 9.130583,215.305954 5.880745,212.139542 
	C2.691597,209.032257 3.211335,204.761093 5.166847,201.459274 
	C8.938672,195.090698 13.429083,189.147705 17.786390,182.787659 
	C21.757090,188.667969 25.248007,193.837753 29.072334,199.501297 
	C25.003874,203.338745 20.803873,207.300262 16.306576,211.479279 
z"/>
</svg>